<svg width="312" height="62" viewBox="0 0 312 62" fill="none" xmlns="http://www.w3.org/2000/svg">
<path d="M1.792 30V10.26H20.02V30H14.868V14.46H6.944V30H1.792ZM23.6123 30V10.26H33.1043C35.3443 10.26 37.071 10.8387 38.2843 11.996C39.5163 13.1347 40.1323 14.712 40.1323 16.728C40.1323 18.744 39.5163 20.3307 38.2843 21.488C37.071 22.6267 35.3443 23.196 33.1043 23.196H28.7643V30H23.6123ZM28.7643 19.248H32.2083C34.2243 19.248 35.2323 18.408 35.2323 16.728C35.2323 15.048 34.2243 14.208 32.2083 14.208H28.7643V19.248ZM38.0487 30L47.2887 10.26H51.3487L60.5887 30H55.4367L53.7287 25.996H44.9087L43.2007 30H38.0487ZM49.2767 15.636L46.5887 22.048H52.0207L49.3327 15.636H49.2767ZM61.7842 30V10.26H71.3042C73.4322 10.26 75.0749 10.7267 76.2322 11.66C77.4082 12.5747 77.9962 13.8067 77.9962 15.356C77.9962 16.3827 77.7349 17.2787 77.2122 18.044C76.7082 18.8093 75.9989 19.3787 75.0842 19.752C76.1855 20.088 77.0349 20.6573 77.6322 21.46C78.2295 22.244 78.5282 23.224 78.5282 24.4C78.5282 26.136 77.9029 27.508 76.6522 28.516C75.4202 29.5053 73.7309 30 71.5842 30H61.7842ZM66.7122 18.1H70.3802C71.3135 18.1 71.9949 17.932 72.4242 17.596C72.8722 17.26 73.0962 16.7467 73.0962 16.056C73.0962 15.3653 72.8722 14.8613 72.4242 14.544C71.9949 14.208 71.3135 14.04 70.3802 14.04H66.7122V18.1ZM66.7122 26.22H70.8842C71.8362 26.22 72.5269 26.0427 72.9562 25.688C73.4042 25.3147 73.6282 24.764 73.6282 24.036C73.6282 23.308 73.4042 22.7667 72.9562 22.412C72.5269 22.0573 71.8362 21.88 70.8842 21.88H66.7122V26.22ZM90.9643 30.308C88.967 30.308 87.2123 29.888 85.7003 29.048C84.207 28.1893 83.0403 26.9947 82.2003 25.464C81.3603 23.9333 80.9403 22.1507 80.9403 20.116C80.9403 18.0627 81.351 16.28 82.1723 14.768C83.0123 13.2373 84.1883 12.052 85.7003 11.212C87.2123 10.372 88.967 9.952 90.9643 9.952C92.9617 9.952 94.707 10.372 96.2003 11.212C97.7123 12.052 98.8883 13.2373 99.7283 14.768C100.568 16.28 100.988 18.0627 100.988 20.116C100.988 22.1507 100.568 23.9333 99.7283 25.464C98.8883 26.9947 97.7123 28.1893 96.2003 29.048C94.707 29.888 92.9617 30.308 90.9643 30.308ZM90.9643 25.996C92.4203 25.996 93.559 25.4827 94.3803 24.456C95.2203 23.4107 95.6403 21.964 95.6403 20.116C95.6403 18.268 95.2297 16.8307 94.4083 15.804C93.587 14.7773 92.439 14.264 90.9643 14.264C89.4897 14.264 88.3417 14.7773 87.5203 15.804C86.699 16.8307 86.2883 18.268 86.2883 20.116C86.2883 21.964 86.699 23.4107 87.5203 24.456C88.3417 25.4827 89.4897 25.996 90.9643 25.996ZM110.47 30.308C108.846 30.308 107.409 30.1213 106.158 29.748C104.908 29.3747 103.778 28.8427 102.77 28.152L104.198 24.372C104.926 24.9133 105.785 25.3333 106.774 25.632C107.764 25.9307 108.837 26.08 109.994 26.08C111.264 26.08 112.197 25.9027 112.794 25.548C113.392 25.1747 113.69 24.6053 113.69 23.84C113.69 23.2053 113.466 22.7387 113.018 22.44C112.589 22.1227 111.898 21.964 110.946 21.964H106.186V18.016H110.414C111.366 18.016 112.057 17.8667 112.486 17.568C112.916 17.2693 113.13 16.8027 113.13 16.168C113.13 15.5893 112.888 15.1133 112.402 14.74C111.936 14.3667 111.161 14.18 110.078 14.18C109.07 14.18 108.081 14.3293 107.11 14.628C106.14 14.908 105.3 15.3187 104.59 15.86L103.134 12.08C104.03 11.4267 105.132 10.9133 106.438 10.54C107.745 10.148 109.173 9.952 110.722 9.952C113.224 9.952 115.09 10.4653 116.322 11.492C117.554 12.5187 118.17 13.8067 118.17 15.356C118.17 16.3827 117.909 17.2787 117.386 18.044C116.882 18.8093 116.173 19.3787 115.258 19.752C116.36 20.088 117.2 20.6573 117.778 21.46C118.376 22.244 118.674 23.224 118.674 24.4C118.674 26.136 118.002 27.5547 116.658 28.656C115.314 29.7573 113.252 30.308 110.47 30.308ZM118.959 30L128.199 10.26H132.259L141.499 30H136.347L134.639 25.996H125.819L124.111 30H118.959ZM130.187 15.636L127.499 22.048H132.931L130.243 15.636H130.187ZM167.95 34.9V30H142.694V10.26H147.762V25.8H153.642V10.26H158.682V25.8H164.562V10.26H169.63V25.8H172.43V34.9H167.95ZM174.851 30V10.26H179.639V21.684L188.683 10.26H192.463V30H187.703V18.548L178.631 30H174.851ZM200.717 30V14.46H194.445V10.26H212.141V14.46H205.869V30H200.717ZM214.089 30V10.26H219.241V17.876H227.389V10.26H232.513V30H227.389V22.104H219.241V30H214.089ZM236.101 30V10.26H240.889V21.684L249.933 10.26H253.713V30H248.953V18.548L239.881 30H236.101ZM257.319 30V10.26H262.471V18.156H264.431L269.135 10.26H274.707L269.051 19.192C270.321 19.9013 271.366 21.096 272.187 22.776L275.687 30H270.143L267.623 24.456C267.269 23.6907 266.83 23.1493 266.307 22.832C265.785 22.5147 265.113 22.356 264.291 22.356H262.471V30H257.319Z" fill="#4F8FF0"/>
<path d="M11.26 54.22C9.86 54.22 8.69333 53.88 7.76 53.2C6.84 52.5067 6.25333 51.56 6 50.36H4.68V54H1.2V44.16H4.68V47.62H6.02C6.3 46.46 6.9 45.56 7.82 44.92C8.74 44.2667 9.88667 43.94 11.26 43.94C12.3533 43.94 13.3067 44.1467 14.12 44.56C14.9333 44.9733 15.5667 45.5667 16.02 46.34C16.4733 47.1 16.7 48.0133 16.7 49.08C16.7 50.1333 16.4733 51.0467 16.02 51.82C15.5667 52.5933 14.9333 53.1867 14.12 53.6C13.3067 54.0133 12.3533 54.22 11.26 54.22ZM11.26 51.6C11.8067 51.6 12.2533 51.4 12.6 51C12.9467 50.6 13.12 49.96 13.12 49.08C13.12 48.1867 12.9467 47.5467 12.6 47.16C12.2533 46.76 11.8067 46.56 11.26 46.56C10.7133 46.56 10.2667 46.76 9.92 47.16C9.57333 47.5467 9.4 48.1867 9.4 49.08C9.4 49.96 9.57333 50.6 9.92 51C10.2667 51.4 10.7133 51.6 11.26 51.6ZM18.6809 57.6V44.16H22.1409V45.5C22.4076 45.02 22.8143 44.64 23.3609 44.36C23.9076 44.08 24.5076 43.94 25.1609 43.94C26.0009 43.94 26.7409 44.1467 27.3809 44.56C28.0343 44.9733 28.5409 45.5667 28.9009 46.34C29.2743 47.1 29.4609 48.0133 29.4609 49.08C29.4609 50.1333 29.2809 51.0467 28.9209 51.82C28.5609 52.5933 28.0543 53.1867 27.4009 53.6C26.7609 54.0133 26.0143 54.22 25.1609 54.22C24.5476 54.22 23.9743 54.0933 23.4409 53.84C22.9209 53.5867 22.5209 53.2467 22.2409 52.82V57.6H18.6809ZM24.0409 51.6C24.5743 51.6 25.0143 51.4 25.3609 51C25.7076 50.6 25.8809 49.96 25.8809 49.08C25.8809 48.1867 25.7076 47.5467 25.3609 47.16C25.0143 46.76 24.5743 46.56 24.0409 46.56C23.4943 46.56 23.0476 46.76 22.7009 47.16C22.3543 47.5467 22.1809 48.1867 22.1809 49.08C22.1809 49.96 22.3543 50.6 22.7009 51C23.0476 51.4 23.4943 51.6 24.0409 51.6ZM31.4148 54V44.16H34.6148V49.48L38.6548 44.16H41.5748V54H38.3748V48.66L34.3348 54H31.4148ZM43.2734 56.6V51.32H44.5134C44.8068 50.7867 45.0134 50.18 45.1334 49.5C45.2668 48.82 45.3334 47.9267 45.3334 46.82V44.16H53.8334V51.32H55.4934V56.6H52.4934V54H46.2734V56.6H43.2734ZM47.6134 51.34H50.5134V46.84H48.3134V47.78C48.3134 48.42 48.2534 49.06 48.1334 49.7C48.0134 50.34 47.8401 50.8867 47.6134 51.34ZM56.9617 54V44.16H60.1617V49.48L64.2017 44.16H67.1217V54H63.9217V48.66L59.8817 54H56.9617ZM75.6403 54V50.94C75.2936 51.06 74.9603 51.1467 74.6403 51.2C74.3203 51.2533 74.007 51.28 73.7003 51.28C70.647 51.28 69.1203 49.78 69.1203 46.78V44.16H72.6803V46.46C72.6803 47.1667 72.807 47.6733 73.0603 47.98C73.327 48.2867 73.787 48.44 74.4403 48.44C74.6536 48.44 74.8536 48.42 75.0403 48.38C75.2403 48.34 75.4136 48.28 75.5603 48.2V44.16H79.1203V54H75.6403ZM86.8925 54.22C85.6925 54.22 84.6525 54.0133 83.7725 53.6C82.9058 53.1733 82.2392 52.5733 81.7725 51.8C81.3058 51.0267 81.0725 50.1133 81.0725 49.06C81.0725 48.06 81.2925 47.1733 81.7325 46.4C82.1858 45.6267 82.7992 45.0267 83.5725 44.6C84.3592 44.16 85.2525 43.94 86.2525 43.94C87.2392 43.94 88.0925 44.1467 88.8125 44.56C89.5458 44.9733 90.1058 45.5667 90.4925 46.34C90.8925 47.1 91.0925 47.9933 91.0925 49.02V49.8H84.4725C84.5925 50.44 84.8592 50.9 85.2725 51.18C85.6858 51.46 86.2592 51.6 86.9925 51.6C87.4992 51.6 88.0258 51.5267 88.5725 51.38C89.1325 51.22 89.6258 50.9933 90.0525 50.7L90.9325 53.04C90.4258 53.4 89.8058 53.6867 89.0725 53.9C88.3392 54.1133 87.6125 54.22 86.8925 54.22ZM86.4125 46.24C85.8792 46.24 85.4392 46.4 85.0925 46.72C84.7592 47.04 84.5458 47.5067 84.4525 48.12H88.1725C88.1325 47.4933 87.9592 47.0267 87.6525 46.72C87.3592 46.4 86.9458 46.24 86.4125 46.24ZM98.0173 54.22C96.9107 54.22 95.944 54.0133 95.1173 53.6C94.304 53.1867 93.6707 52.5933 93.2173 51.82C92.764 51.0467 92.5373 50.1267 92.5373 49.06C92.5373 47.9933 92.764 47.08 93.2173 46.32C93.6707 45.5467 94.304 44.96 95.1173 44.56C95.944 44.1467 96.9107 43.94 98.0173 43.94C98.6707 43.94 99.3173 44.0333 99.9573 44.22C100.611 44.3933 101.144 44.64 101.557 44.96L100.617 47.4C100.311 47.16 99.9507 46.9733 99.5373 46.84C99.1373 46.6933 98.7573 46.62 98.3973 46.62C97.6907 46.62 97.144 46.8333 96.7573 47.26C96.3707 47.6867 96.1773 48.2867 96.1773 49.06C96.1773 49.8467 96.3707 50.46 96.7573 50.9C97.144 51.3267 97.6907 51.54 98.3973 51.54C98.7573 51.54 99.1373 51.4733 99.5373 51.34C99.9507 51.1933 100.311 51 100.617 50.76L101.557 53.2C101.144 53.52 100.611 53.7733 99.9573 53.96C99.304 54.1333 98.6573 54.22 98.0173 54.22ZM103.016 54V44.16H106.576V47.64H107.536L109.936 44.16H113.696L110.676 48.58C110.943 48.7533 111.176 48.9667 111.376 49.22C111.59 49.46 111.776 49.7267 111.936 50.02L114.056 54H110.276L108.776 51.2C108.59 50.88 108.403 50.66 108.216 50.54C108.03 50.42 107.79 50.36 107.496 50.36H106.576V54H103.016ZM118.429 54.22C117.669 54.22 116.996 54.08 116.409 53.8C115.836 53.52 115.382 53.14 115.049 52.66C114.729 52.1667 114.569 51.6067 114.569 50.98C114.569 50.2733 114.756 49.7133 115.129 49.3C115.502 48.8733 116.102 48.5733 116.929 48.4C117.756 48.2133 118.856 48.12 120.229 48.12H120.989V47.84C120.989 47.36 120.862 47.02 120.609 46.82C120.369 46.62 119.949 46.52 119.349 46.52C118.842 46.52 118.282 46.6 117.669 46.76C117.056 46.92 116.456 47.1667 115.869 47.5L114.969 45.16C115.302 44.92 115.729 44.7067 116.249 44.52C116.769 44.3333 117.316 44.1933 117.889 44.1C118.462 43.9933 119.002 43.94 119.509 43.94C121.149 43.94 122.362 44.2933 123.149 45C123.949 45.7067 124.349 46.82 124.349 48.34V54H121.029V52.6C120.856 53.1067 120.542 53.5067 120.089 53.8C119.636 54.08 119.082 54.22 118.429 54.22ZM119.229 51.9C119.722 51.9 120.136 51.74 120.469 51.42C120.816 51.1 120.989 50.68 120.989 50.16V49.8H120.229C119.442 49.8 118.862 49.8867 118.489 50.06C118.129 50.22 117.949 50.48 117.949 50.84C117.949 51.1467 118.056 51.4 118.269 51.6C118.496 51.8 118.816 51.9 119.229 51.9ZM125.828 54L127.208 51.58C127.581 50.9267 128.074 50.48 128.688 50.24C127.101 49.9067 126.308 48.94 126.308 47.34C126.308 46.34 126.654 45.56 127.348 45C128.041 44.44 129.041 44.16 130.348 44.16H136.048V54H132.788V51.02H132.188C131.961 51.02 131.748 51.0933 131.548 51.24C131.348 51.3867 131.174 51.58 131.028 51.82L129.808 54H125.828ZM131.128 48.78H132.788V46.4H131.128C130.634 46.4 130.261 46.5067 130.008 46.72C129.754 46.92 129.628 47.2067 129.628 47.58C129.628 47.9533 129.754 48.2467 130.008 48.46C130.261 48.6733 130.634 48.78 131.128 48.78ZM144.169 54V44.16H147.729V47.64H148.689L151.089 44.16H154.849L151.829 48.58C152.095 48.7533 152.329 48.9667 152.529 49.22C152.742 49.46 152.929 49.7267 153.089 50.02L155.209 54H151.429L149.929 51.2C149.742 50.88 149.555 50.66 149.369 50.54C149.182 50.42 148.942 50.36 148.649 50.36H147.729V54H144.169ZM161.141 54.22C160.048 54.22 159.095 54.0133 158.281 53.6C157.468 53.1867 156.835 52.5933 156.381 51.82C155.928 51.0467 155.701 50.1333 155.701 49.08C155.701 48.0133 155.928 47.1 156.381 46.34C156.835 45.5667 157.468 44.9733 158.281 44.56C159.095 44.1467 160.048 43.94 161.141 43.94C162.235 43.94 163.188 44.1467 164.001 44.56C164.815 44.9733 165.441 45.5667 165.881 46.34C166.335 47.1 166.561 48.0133 166.561 49.08C166.561 50.1333 166.335 51.0467 165.881 51.82C165.441 52.5933 164.815 53.1867 164.001 53.6C163.188 54.0133 162.235 54.22 161.141 54.22ZM161.141 51.6C161.675 51.6 162.115 51.4 162.461 51C162.808 50.6 162.981 49.96 162.981 49.08C162.981 48.1867 162.808 47.5467 162.461 47.16C162.115 46.76 161.675 46.56 161.141 46.56C160.595 46.56 160.148 46.76 159.801 47.16C159.455 47.5467 159.281 48.1867 159.281 49.08C159.281 49.96 159.455 50.6 159.801 51C160.148 51.4 160.595 51.6 161.141 51.6ZM168.524 54V44.16H171.444L174.504 49.06L177.544 44.16H180.444V54H177.324V49.1L175.284 52.38H173.684L171.644 49.1V54H168.524ZM182.841 54V44.16H193.041V54H189.481V46.88H186.401V54H182.841ZM198.878 54.22C198.118 54.22 197.445 54.08 196.858 53.8C196.285 53.52 195.832 53.14 195.498 52.66C195.178 52.1667 195.018 51.6067 195.018 50.98C195.018 50.2733 195.205 49.7133 195.578 49.3C195.952 48.8733 196.552 48.5733 197.378 48.4C198.205 48.2133 199.305 48.12 200.678 48.12H201.438V47.84C201.438 47.36 201.312 47.02 201.058 46.82C200.818 46.62 200.398 46.52 199.798 46.52C199.292 46.52 198.732 46.6 198.118 46.76C197.505 46.92 196.905 47.1667 196.318 47.5L195.418 45.16C195.752 44.92 196.178 44.7067 196.698 44.52C197.218 44.3333 197.765 44.1933 198.338 44.1C198.912 43.9933 199.452 43.94 199.958 43.94C201.598 43.94 202.812 44.2933 203.598 45C204.398 45.7067 204.798 46.82 204.798 48.34V54H201.478V52.6C201.305 53.1067 200.992 53.5067 200.538 53.8C200.085 54.08 199.532 54.22 198.878 54.22ZM199.678 51.9C200.172 51.9 200.585 51.74 200.918 51.42C201.265 51.1 201.438 50.68 201.438 50.16V49.8H200.678C199.892 49.8 199.312 49.8867 198.938 50.06C198.578 50.22 198.398 50.48 198.398 50.84C198.398 51.1467 198.505 51.4 198.718 51.6C198.945 51.8 199.265 51.9 199.678 51.9ZM207.157 54V44.16H210.717V47.62H213.857V44.16H217.417V54H213.857V50.36H210.717V54H207.157ZM219.813 54V44.16H223.013V49.48L227.053 44.16H229.973V54H226.773V48.66L222.733 54H219.813ZM231.492 54L232.872 51.58C233.245 50.9267 233.739 50.48 234.352 50.24C232.765 49.9067 231.972 48.94 231.972 47.34C231.972 46.34 232.319 45.56 233.012 45C233.705 44.44 234.705 44.16 236.012 44.16H241.712V54H238.452V51.02H237.852C237.625 51.02 237.412 51.0933 237.212 51.24C237.012 51.3867 236.839 51.58 236.692 51.82L235.472 54H231.492ZM236.792 48.78H238.452V46.4H236.792C236.299 46.4 235.925 46.5067 235.672 46.72C235.419 46.92 235.292 47.2067 235.292 47.58C235.292 47.9533 235.419 48.2467 235.672 48.46C235.925 48.6733 236.299 48.78 236.792 48.78Z" fill="white"/>
</svg>
