<svg width="18" height="14" viewBox="0 0 18 14" fill="none" xmlns="http://www.w3.org/2000/svg">
<path d="M2.33317 13.6666C1.87484 13.6666 1.48234 13.5033 1.15567 13.1766C0.829005 12.8499 0.66595 12.4577 0.666505 11.9999V1.99992C0.666505 1.54159 0.829839 1.14909 1.15651 0.82242C1.48317 0.495753 1.87539 0.332698 2.33317 0.333253H15.6665C16.1248 0.333253 16.5173 0.496587 16.844 0.823253C17.1707 1.14992 17.3337 1.54214 17.3332 1.99992V11.9999C17.3332 12.4583 17.1698 12.8508 16.8432 13.1774C16.5165 13.5041 16.1243 13.6671 15.6665 13.6666H2.33317ZM8.99984 7.83325L2.33317 3.66659V11.9999H15.6665V3.66659L8.99984 7.83325ZM8.99984 6.16659L15.6665 1.99992H2.33317L8.99984 6.16659ZM2.33317 3.66659V1.99992V11.9999V3.66659Z" fill="#4F8FF0"/>
</svg>
